# xmcd
#
# Track frame offsets:
#  150
#  20683
#  36441
#  56722
#  69349
#  94137
#  105599
#  118880
#  139594
#  146047
#
# Disc length: 2392 seconds
#
# Revision: 1
# Processed by: cddbd v1.5.1PL2 Copyright (c) Steve Scherf et al.
# Submitted via: Collectorz.com_Music_Collector 6.11
#
DISCID=9309560a
DTITLE=Swamp Cabbage - Honk
DYEAR=2004
DGENRE=Blues
TTITLE0=Tallahassee
TTITLE1=If A Thing Feels Right
TTITLE2=The Lid
TTITLE3=The Dipstick Rag
TTITLE4=More Booty With Buddah
TTITLE5=Silver Meteor
TTITLE6=The Hodown Town (Katy)
TTITLE7=Southern Hospitality
TTITLE8=Jersey City
TTITLE9=Kilowatt
EXTD=
EXTT0=
EXTT1=
EXTT2=
EXTT3=
EXTT4=
EXTT5=
EXTT6=
EXTT7=
EXTT8=
EXTT9=
PLAYORDER=
